<svg xmlns="http://www.w3.org/2000/svg" width="613" height="1024" viewBox="0 0 613 1024"><path fill="#89a258" d="M43.902 272.637c3.532 1.68 15.251 12.433 19.08 15.791l26 22.58 71.81 61.74c13.914 11.835 33.187 27.217 46.195 39.814l.225 77.45c-11.495 4.598-30.164 10.284-42.408 14.471-28.342 9.326-56.39 19.806-84.823 28.905-12.066 3.861-24.183 7.827-36.016 12.35-1.759-71.718.838-144.093-.084-215.872-.244-18.964-.391-38.29.02-57.229"/><path fill="#bdd169" d="M203.816 31.842c1.84 1.755 1.094 28.974 1.094 33.09l.002 58.95.048 167.338c.022 27.788-.558 57.742.162 85.385-6.83-4.514-19.794-16.6-26.623-22.5l-54.176-46.603c-8.179-6.744-16.252-14.054-24.36-20.966L54.787 248.25c1.731-3.32 6.378-9.79 8.646-13.12l16.313-23.852 52.872-76.783a8452 8452 0 0 1 48.802-70.958c5.655-8.164 16.418-25.016 22.396-31.694"/><path fill="#89a258" d="M235.16 25.232c1.929 1.427 8.784 8.543 10.632 10.453a2262 2262 0 0 0 18.434 18.953 5135 5135 0 0 1 67.975 69.222 1567 1567 0 0 0 30.923 31.242c8.085 7.92 20.21 19.207 26.957 27.8-10.665 7.318-21.947 16.88-32.057 25.141l-37.956 31.036c-27.76 21.9-58.476 45.921-85.535 68.493-.707-21.836-.214-45.686-.194-67.649l.083-118.883-.026-59.638c-.03-9.53-.65-27.216.763-36.17"/><path fill="#bdd169" d="M397.752 209.366c1.99 7.632.142 31.015.432 39.466.183 5.33 1.055 33.644-.306 36.326-4.797 9.456-15.74 24.37-22.14 33.644a4059 4059 0 0 1-76.056 107.665c-15.759-6.492-32.98-12.464-49.058-18.68-5.71-2.027-12.841-4.407-18.068-7.35-1.163-6.754-1.05-20.238-1.057-27.454-.01-10.111-.131-21.114.305-31.182 20.394-15.122 38.053-29.69 57.69-45.528l64.541-51.834c13.47-10.84 29.971-25.164 43.717-35.073"/><path fill="#bdd169" d="M305.543 455.702c3.295 1.967 10.036 8.07 13.23 10.847a1617 1617 0 0 0 21.19 18.26l56.98 48.294c9.467 8.068 23.15 19.108 31.618 27.737.118 18.75-.284 37.968.219 56.664-10.32 4.063-22.848 7.85-33.52 11.627l-89.733 30.563.032-126.023c-.059-26.298-.454-51.626-.016-77.969"/><path fill="#89a258" d="M572.8 409.901c1.925 2.546 1.15 57.104 1.16 64.75l.325 124.109c-8.84-4.164-21.124-8.319-30.48-11.892l-57.37-21.855c-11.906-4.281-23.096-9.308-35.337-13.29-.3-14.319-.098-29.423-.14-43.805 12.132-8.913 24.556-19.372 36.337-28.876l56.836-45.771c8.01-6.449 20.862-17.905 28.669-23.37"/><path fill="#89a258" d="M430.13 278.818c.444 1.053.448 3.251.458 4.414l.096 160.987.094 55.27c.017 10.004.402 23.795-.495 33.564-6.837-5.441-14.809-12.714-21.483-18.548l-36.944-32.14c-11.216-8.511-22.017-18.71-33.133-27.471-6.189-4.878-13.27-10.922-18.829-16.442 1.889-3.98 8.881-13.617 11.544-17.403l19.255-27.55a8477 8477 0 0 0 79.437-114.68"/><path fill="#bdd169" d="M202.765 520.069c.6-.055.753.07 1.382.237 1.514 3.825.87 43.984.86 50.994l-.414 126.713c-11.347-8.281-26.427-21.415-37.216-30.545a3793 3793 0 0 0-45.019-37.56 1852 1852 0 0 0-44.767-37.263c-7.183-5.87-19.514-15.408-25.548-21.92 5.895-2.976 16.756-6.08 23.39-8.208q15.66-5.085 31.255-10.374l55.409-18.917c13.04-4.48 27.426-9.706 40.668-13.157"/><path fill="#69615c" d="m226.133 702.085 1.057.267c.416 1.953.194 16.175.188 18.873l.07 42.545.05 142.146c.002 24.494-.669 52.456.39 76.672l73.786.028c.304 8.202-.038 17.457.114 25.893l-98.414-.012-75.777-.032-.111-25.985 45.957.136c6.488-.02 21.117-.462 27.127.248-.774-27.537-.054-58.665-.05-86.432l-.109-187.325a579 579 0 0 1 25.722-7.022"/><path fill="#bdd169" d="M448.676 274.781c3.887 2.097 10.58 9.726 13.768 13.069 33.043 34.633 67.67 67.925 100.728 102.521-16.266 13.38-33.516 26.475-49.978 39.902-12.506 9.792-24.916 20.545-37.329 30.536-9.336 7.515-17.011 14.452-27.338 20.713l-.062-135.935a2511 2511 0 0 1 .211-70.806"/><path fill="#89a258" d="M234.55 429.851c8.925 2.657 18.895 7.035 27.67 10.43 8.27 3.201 18.297 6.446 26.143 10.231.211 6.235-.069 14.264-.067 20.651q.09 24.743-.143 49.483l-.162 102.04c-6.278 10.425-21.336 28.537-29.36 38.554a2091 2091 0 0 0-23.5 30.2c-.71-12.943-.84-25.566-.752-38.526.503-74.3-.754-148.785.171-223.063"/><path fill="#bdd169" d="M448.547 573.28c27.95 9.838 55.497 21.859 83.454 31.832 11.338 4.046 23.553 8.523 34.304 13.869-22.394 27.561-44.305 57.077-66.266 85.217-5.274 6.145-12.034 15.407-17.098 21.993-11.372 14.791-22.164 28.848-34.285 43.079.46-4.658.027-15.987-.022-21.27l-.13-38.526z"/><path fill="#89a258" d="M428.757 640.049c.786-.137.674-.035 1.534.184 1.203 2.51.356 11.94.347 15.295l.187 32.343c.235 27.451.955 58.562-.285 85.823-5.997-4.627-13.244-11.076-19.268-16.063l-41.32-34.241-32.01-26.295c-6.27-5.161-16.034-13.083-21.412-18.845 12.701-4.091 25.526-8.788 38.175-13.127z"/><path fill="#69615c" d="M439.582 778.154c1.755-.212 2.164-.285 3.896-.006.994 1.096.868 1.242.896 3.05.102 6.735.025 13.541.02 20.277l-.013 39.52c-.008 47.932-.573 97.027.119 144.867 14.79-.325 31.682-.081 46.498.037.162 6.41.104 13.18.15 19.62l-60.9.03-52.082-.029a939 939 0 0 0-.147-19.56l46.483.02c.361-28.972.052-58.657.058-87.677l-.098-117.06a297 297 0 0 1 15.12-3.089"/></svg>